<svg width="29" height="29" viewBox="0 0 29 29" fill="none" xmlns="http://www.w3.org/2000/svg">
<path fill-rule="evenodd" clip-rule="evenodd" d="M14.5 2C7.59644 2 2 7.59644 2 14.5C2 21.4036 7.59644 27 14.5 27C21.4036 27 27 21.4036 27 14.5C27 7.59644 21.4036 2 14.5 2ZM0 14.5C0 6.49187 6.49187 0 14.5 0C22.5081 0 29 6.49187 29 14.5C29 22.5081 22.5081 29 14.5 29C6.49187 29 0 22.5081 0 14.5Z" fill="white"/>
<path fill-rule="evenodd" clip-rule="evenodd" d="M14.7847 18.9624C14.7847 18.9624 15.0734 18.9307 15.2213 18.7741C15.3567 18.6306 15.352 18.3598 15.352 18.3598C15.352 18.3598 15.334 17.0951 15.9296 16.9084C16.5165 16.7248 17.2701 18.1314 18.0699 18.6723C18.674 19.0812 19.1326 18.9917 19.1326 18.9917L21.2697 18.9624C21.2697 18.9624 22.3872 18.8945 21.8574 18.028C21.8136 17.957 21.5483 17.3868 20.2688 16.2155C18.9283 14.9895 19.1083 15.1878 20.722 13.0667C21.7048 11.775 22.0977 10.9865 21.9748 10.6493C21.8582 10.3268 21.1351 10.4124 21.1351 10.4124L18.7296 10.4271C18.7296 10.4271 18.5511 10.4032 18.4189 10.4811C18.2898 10.5575 18.206 10.7357 18.206 10.7357C18.206 10.7357 17.8257 11.7349 17.3178 12.5852C16.2465 14.3784 15.8184 14.4733 15.6431 14.3622C15.2354 14.1021 15.3372 13.319 15.3372 12.7627C15.3372 11.0243 15.6048 10.2998 14.8167 10.1123C14.5554 10.0498 14.3629 10.0089 13.6938 10.0019C12.8353 9.99344 12.1091 10.005 11.6975 10.2033C11.4236 10.3353 11.2123 10.63 11.3414 10.647C11.5003 10.6678 11.8602 10.7427 12.0512 10.9988C12.2977 11.3298 12.2891 12.0721 12.2891 12.0721C12.2891 12.0721 12.4307 14.1184 11.9581 14.3722C11.6341 14.5466 11.1896 14.1909 10.2341 12.5636C9.74497 11.7303 9.3756 10.809 9.3756 10.809C9.3756 10.809 9.30439 10.6369 9.17684 10.5444C9.02267 10.4325 8.80747 10.3978 8.80747 10.3978L6.52161 10.4124C6.52161 10.4124 6.17806 10.4217 6.05207 10.569C5.94016 10.6994 6.04346 10.9703 6.04346 10.9703C6.04346 10.9703 7.83318 15.099 9.86001 17.18C11.7186 19.0874 13.8284 18.9624 13.8284 18.9624H14.7847Z" fill="white"/>
</svg>
