<svg width="29" height="29" viewBox="0 0 29 29" fill="none" xmlns="http://www.w3.org/2000/svg">
<path fill-rule="evenodd" clip-rule="evenodd" d="M14.5 2C7.59644 2 2 7.59644 2 14.5C2 21.4036 7.59644 27 14.5 27C21.4036 27 27 21.4036 27 14.5C27 7.59644 21.4036 2 14.5 2ZM0 14.5C0 6.49187 6.49187 0 14.5 0C22.5081 0 29 6.49187 29 14.5C29 22.5081 22.5081 29 14.5 29C6.49187 29 0 22.5081 0 14.5Z" fill="white"/>
<path fill-rule="evenodd" clip-rule="evenodd" d="M20.3603 9.3284C21.0057 9.50911 21.514 10.0415 21.6865 10.7177C22 11.9431 22 14.5 22 14.5C22 14.5 22 17.0568 21.6865 18.2823C21.514 18.9585 21.0057 19.4909 20.3603 19.6717C19.1907 20 14.5 20 14.5 20C14.5 20 9.80935 20 8.6396 19.6717C7.99418 19.4909 7.48588 18.9585 7.31338 18.2823C7 17.0568 7 14.5 7 14.5C7 14.5 7 11.9431 7.31338 10.7177C7.48588 10.0415 7.99418 9.50911 8.6396 9.3284C9.80935 9 14.5 9 14.5 9C14.5 9 19.1907 9 20.3603 9.3284ZM13.0954 12.3478V17.1304L16.8454 14.7392L13.0954 12.3478Z" fill="white"/>
</svg>
