<svg width="29" height="29" viewBox="0 0 29 29" fill="none" xmlns="http://www.w3.org/2000/svg">
<path fill-rule="evenodd" clip-rule="evenodd" d="M14.5 2C7.59644 2 2 7.59644 2 14.5C2 21.4036 7.59644 27 14.5 27C21.4036 27 27 21.4036 27 14.5C27 7.59644 21.4036 2 14.5 2ZM0 14.5C0 6.49187 6.49187 0 14.5 0C22.5081 0 29 6.49187 29 14.5C29 22.5081 22.5081 29 14.5 29C6.49187 29 0 22.5081 0 14.5Z" fill="white"/>
<path fill-rule="evenodd" clip-rule="evenodd" d="M15.7259 22.2317V14.615H17.8285L18.1071 11.9902H15.7259L15.7295 10.6765C15.7295 9.99188 15.7945 9.62507 16.7778 9.62507H18.0922V7H15.9894C13.4635 7 12.5745 8.2733 12.5745 10.4146V11.9905H11V14.6153H12.5745V22.2317H15.7259Z" fill="white"/>
</svg>
