<svg width="18" height="24" viewBox="0 0 18 24" fill="none" xmlns="http://www.w3.org/2000/svg">
<path fill-rule="evenodd" clip-rule="evenodd" d="M16 9.89623C16 10.4053 15.8117 11.1756 15.3453 12.2022C14.8922 13.1994 14.2436 14.2945 13.4869 15.4104C12.013 17.5837 10.2343 19.6821 9 21.0598C7.76568 19.6821 5.98699 17.5837 4.5131 15.4104C3.75637 14.2945 3.1078 13.1994 2.65473 12.2022C2.18827 11.1756 2 10.4053 2 9.89623C2 6.10935 5.11208 3 9 3C12.8879 3 16 6.10935 16 9.89623ZM18 9.89623C18 13.5891 12.9158 19.6982 10.39 22.5053C9.64021 23.3386 8.35979 23.3386 7.61 22.5053C5.08424 19.6982 0 13.5891 0 9.89623C0 4.98298 4.02944 1 9 1C13.9706 1 18 4.98298 18 9.89623ZM9 11C10.1046 11 11 10.1046 11 9C11 7.89543 10.1046 7 9 7C7.89543 7 7 7.89543 7 9C7 10.1046 7.89543 11 9 11Z" fill="white"/>
</svg>
