<svg width="29" height="29" viewBox="0 0 29 29" fill="none" xmlns="http://www.w3.org/2000/svg">
<path fill-rule="evenodd" clip-rule="evenodd" d="M14.5 2C7.59644 2 2 7.59644 2 14.5C2 21.4036 7.59644 27 14.5 27C21.4036 27 27 21.4036 27 14.5C27 7.59644 21.4036 2 14.5 2ZM0 14.5C0 6.49187 6.49187 0 14.5 0C22.5081 0 29 6.49187 29 14.5C29 22.5081 22.5081 29 14.5 29C6.49187 29 0 22.5081 0 14.5Z" fill="white"/>
<path fill-rule="evenodd" clip-rule="evenodd" d="M14.4871 14.7409C16.699 14.7409 18.497 13.005 18.497 10.871C18.497 8.73633 16.699 7 14.4871 7C12.2756 7 10.4771 8.73633 10.4771 10.871C10.4771 13.005 12.2756 14.7409 14.4871 14.7409ZM14.4958 9.26896C15.4114 9.26896 16.1562 9.98762 16.1562 10.8714C16.1562 11.7545 15.4114 12.4737 14.4958 12.4737C13.581 12.4737 12.8355 11.7545 12.8355 10.8714C12.8355 9.98762 13.581 9.26896 14.4958 9.26896Z" fill="white"/>
<path d="M18.451 16.9693C17.7259 17.4089 16.9387 17.7207 16.1225 17.9002L18.3641 20.0643C18.8234 20.5066 18.8234 21.2251 18.3641 21.6679C17.9054 22.1107 17.1619 22.1107 16.7036 21.6679L14.4996 19.5413L12.2975 21.6679C12.0679 21.8891 11.767 21.9998 11.4662 21.9998C11.1658 21.9998 10.8654 21.8891 10.6358 21.6679C10.177 21.2251 10.177 20.5071 10.6353 20.0643L12.8772 17.9002C12.0609 17.7207 11.2737 17.4085 10.5487 16.9693C9.99994 16.6354 9.83511 15.9357 10.1808 15.4055C10.5256 14.8747 11.2507 14.7149 11.8004 15.0489C13.442 16.0457 15.5567 16.0459 17.1993 15.0489C17.749 14.7149 18.4738 14.8747 18.8193 15.4055C19.165 15.9352 18.9997 16.6354 18.451 16.9693Z" fill="white"/>
</svg>
