<svg width="224" height="52" viewBox="0 0 224 52" fill="none" xmlns="http://www.w3.org/2000/svg">
<path d="M68.419 25.4708H58.0665V22.167H68.419V25.4708ZM69.8943 32.86H58.0665C57.6125 32.86 57.1165 32.7801 56.5785 32.6204C56.0405 32.4607 55.5403 32.2001 55.078 31.8386C54.624 31.4687 54.2415 30.9938 53.9305 30.4137C53.6279 29.8253 53.4766 29.1065 53.4766 28.2575V16.4296C53.4766 16.2027 53.5186 15.9883 53.6027 15.7865C53.6867 15.5848 53.8002 15.4083 53.9431 15.2569C54.0944 15.1056 54.271 14.9879 54.4727 14.9039C54.6745 14.8198 54.893 14.7778 55.1284 14.7778H69.8943V18.0563H56.7551V28.2575C56.7551 28.6862 56.8686 29.0141 57.0955 29.241C57.3225 29.468 57.6546 29.5815 58.0917 29.5815H69.8943V32.86Z" fill="white"/>
<path d="M91.1416 31.4603C91.1416 31.6957 91.0954 31.9143 91.0029 32.116C90.9188 32.3178 90.8011 32.4943 90.6498 32.6456C90.5069 32.7886 90.3346 32.902 90.1328 32.9861C89.9311 33.0702 89.7167 33.1122 89.4897 33.1122C89.288 33.1122 89.082 33.0744 88.8718 32.9987C88.6701 32.9231 88.4894 32.8012 88.3296 32.633L76.3505 20.1243V32.86H73.072V16.1774C73.072 15.8412 73.1644 15.5386 73.3494 15.2695C73.5427 14.9921 73.7865 14.7862 74.0807 14.6517C74.3918 14.5256 74.7112 14.4962 75.0391 14.5634C75.3669 14.6223 75.6485 14.7736 75.8839 15.0174L87.8631 27.5135V14.7778H91.1416V31.4603Z" fill="white"/>
<path d="M112.805 31.2081C112.805 31.4435 112.763 31.6621 112.679 31.8638C112.595 32.0656 112.477 32.2421 112.326 32.3935C112.183 32.5364 112.011 32.6498 111.809 32.7339C111.607 32.818 111.388 32.86 111.153 32.86H99.3252C99.0226 32.86 98.6948 32.8264 98.3417 32.7591C97.997 32.6835 97.6524 32.57 97.3077 32.4187C96.9714 32.2674 96.6478 32.074 96.3368 31.8386C96.0257 31.5948 95.7483 31.3048 95.5045 30.9686C95.2691 30.6239 95.08 30.2288 94.9371 29.7833C94.7942 29.3293 94.7227 28.8207 94.7227 28.2575V19.3803C94.7227 19.0777 94.7564 18.754 94.8236 18.4094C94.8993 18.0563 95.0127 17.7116 95.1641 17.3754C95.3154 17.0307 95.5129 16.7028 95.7567 16.3918C96.0005 16.0808 96.2905 15.8076 96.6268 15.5722C96.9714 15.3284 97.3665 15.135 97.8121 14.9921C98.2576 14.8492 98.762 14.7778 99.3252 14.7778H112.654V18.0563H99.3252C98.8965 18.0563 98.5687 18.1698 98.3417 18.3967C98.1147 18.6237 98.0012 18.96 98.0012 19.4055V28.2575C98.0012 28.6778 98.1147 29.0057 98.3417 29.241C98.5771 29.468 98.9049 29.5815 99.3252 29.5815H109.526V25.4708H100.801V22.167H111.153C111.388 22.167 111.607 22.2133 111.809 22.3057C112.011 22.3898 112.183 22.5075 112.326 22.6588C112.477 22.8101 112.595 22.9867 112.679 23.1884C112.763 23.3818 112.805 23.5919 112.805 23.8189V31.2081Z" fill="white"/>
<path d="M119.526 32.86H116.247V14.7778H119.526V32.86Z" fill="white"/>
<path d="M141.429 31.4603C141.429 31.6957 141.383 31.9143 141.29 32.116C141.206 32.3178 141.088 32.4943 140.937 32.6456C140.794 32.7886 140.622 32.902 140.42 32.9861C140.218 33.0702 140.004 33.1122 139.777 33.1122C139.575 33.1122 139.369 33.0744 139.159 32.9987C138.957 32.9231 138.777 32.8012 138.617 32.633L126.638 20.1243V32.86H123.359V16.1774C123.359 15.8412 123.452 15.5386 123.637 15.2695C123.83 14.9921 124.074 14.7862 124.368 14.6517C124.679 14.5256 124.998 14.4962 125.326 14.5634C125.654 14.6223 125.936 14.7736 126.171 15.0174L138.15 27.5135V14.7778H141.429V31.4603Z" fill="white"/>
<path d="M160.116 25.4708H149.764V22.167H160.116V25.4708ZM161.592 32.86H149.764C149.31 32.86 148.814 32.7801 148.276 32.6204C147.738 32.4607 147.238 32.2001 146.775 31.8386C146.321 31.4687 145.939 30.9938 145.628 30.4137C145.325 29.8253 145.174 29.1065 145.174 28.2575V16.4296C145.174 16.2027 145.216 15.9883 145.3 15.7865C145.384 15.5848 145.498 15.4083 145.64 15.2569C145.792 15.1056 145.968 14.9879 146.17 14.9039C146.372 14.8198 146.59 14.7778 146.826 14.7778H161.592V18.0563H148.452V28.2575C148.452 28.6862 148.566 29.0141 148.793 29.241C149.02 29.468 149.352 29.5815 149.789 29.5815H161.592V32.86Z" fill="white"/>
<path d="M179.636 25.4708H169.284V22.167H179.636V25.4708ZM181.111 32.86H169.284C168.83 32.86 168.334 32.7801 167.796 32.6204C167.258 32.4607 166.757 32.2001 166.295 31.8386C165.841 31.4687 165.459 30.9938 165.148 30.4137C164.845 29.8253 164.694 29.1065 164.694 28.2575V16.4296C164.694 16.2027 164.736 15.9883 164.82 15.7865C164.904 15.5848 165.017 15.4083 165.16 15.2569C165.312 15.1056 165.488 14.9879 165.69 14.9039C165.892 14.8198 166.11 14.7778 166.346 14.7778H181.111V18.0563H167.972V28.2575C167.972 28.6862 168.086 29.0141 168.313 29.241C168.54 29.468 168.872 29.5815 169.309 29.5815H181.111V32.86Z" fill="white"/>
<path d="M202.359 20.8556C202.359 21.6038 202.266 22.2721 202.081 22.8606C201.896 23.449 201.644 23.9702 201.325 24.4242C201.014 24.8697 200.652 25.2522 200.24 25.5716C199.828 25.8911 199.395 26.1559 198.941 26.366C198.496 26.5678 198.042 26.7149 197.58 26.8074C197.126 26.8998 196.697 26.9461 196.293 26.9461L203.14 32.86H198.071L191.237 26.9461H188.879V23.6676H196.293C196.705 23.6339 197.079 23.5499 197.416 23.4154C197.76 23.2725 198.055 23.0833 198.298 22.8479C198.551 22.6126 198.744 22.331 198.878 22.0031C199.013 21.6668 199.08 21.2844 199.08 20.8556V18.7876C199.08 18.6027 199.055 18.464 199.005 18.3715C198.962 18.2706 198.904 18.1992 198.828 18.1572C198.761 18.1067 198.685 18.0773 198.601 18.0689C198.525 18.0605 198.454 18.0563 198.387 18.0563H187.568V32.86H184.289V16.4296C184.289 16.2027 184.331 15.9883 184.415 15.7865C184.499 15.5848 184.613 15.4083 184.756 15.2569C184.907 15.1056 185.083 14.9879 185.285 14.9039C185.487 14.8198 185.706 14.7778 185.941 14.7778H198.387C199.118 14.7778 199.736 14.9123 200.24 15.1813C200.745 15.4419 201.152 15.7739 201.463 16.1774C201.783 16.5725 202.01 17.0013 202.144 17.4636C202.287 17.926 202.359 18.3589 202.359 18.7624V20.8556Z" fill="white"/>
<path d="M223.026 27.5387C223.026 28.186 222.942 28.7703 222.774 29.2915C222.614 29.8043 222.4 30.2582 222.131 30.6533C221.862 31.0484 221.546 31.3847 221.185 31.6621C220.823 31.9395 220.449 32.1665 220.063 32.343C219.676 32.5195 219.281 32.6498 218.877 32.7339C218.482 32.818 218.108 32.86 217.755 32.86H205.108V29.5815H217.755C218.386 29.5815 218.873 29.3966 219.218 29.0267C219.571 28.6568 219.747 28.1608 219.747 27.5387C219.747 27.2361 219.701 26.9587 219.609 26.7065C219.516 26.4543 219.382 26.2357 219.205 26.0508C219.037 25.8659 218.827 25.7229 218.575 25.6221C218.331 25.5212 218.058 25.4708 217.755 25.4708H210.215C209.685 25.4708 209.113 25.3783 208.5 25.1933C207.886 25 207.314 24.6932 206.785 24.2728C206.263 23.8525 205.826 23.3019 205.473 22.621C205.129 21.9401 204.956 21.1078 204.956 20.1243C204.956 19.1407 205.129 18.3127 205.473 17.6402C205.826 16.9592 206.263 16.4086 206.785 15.9883C207.314 15.5596 207.886 15.2527 208.5 15.0678C209.113 14.8744 209.685 14.7778 210.215 14.7778H221.374V18.0563H210.215C209.592 18.0563 209.105 18.2454 208.752 18.6237C208.407 19.002 208.235 19.5022 208.235 20.1243C208.235 20.7547 208.407 21.2549 208.752 21.6248C209.105 21.9863 209.592 22.167 210.215 22.167H217.755H217.78C218.133 22.1754 218.507 22.2259 218.903 22.3183C219.298 22.4024 219.689 22.5369 220.075 22.7219C220.47 22.9068 220.844 23.1422 221.198 23.428C221.551 23.7054 221.862 24.0417 222.131 24.4368C222.408 24.8319 222.627 25.2858 222.786 25.7986C222.946 26.3114 223.026 26.8914 223.026 27.5387Z" fill="white"/>
<path d="M57.6875 39.6602H59.1055V46H57.6875V41.7695L55.2031 46H53.7852V39.6602H55.2031V43.8906L57.6875 39.6602ZM66.2302 46H64.8064V43.4395H62.3396V46H60.9158V39.6602H62.3396V42.3027H64.8064V39.6602H66.2302V46ZM73.5718 43.4512H72.8159V46H71.3921V43.4512H70.6421L69.1831 46H67.437L69.5405 42.7012L67.5484 39.6602H69.2886L70.7241 42.1504H71.3921V39.6602H72.8159V42.1504H73.4898L74.9312 39.6602H76.6714L74.6851 42.6836L76.8003 46H75.0308L73.5718 43.4512ZM80.597 46.1172C79.6946 46.1172 78.9622 45.834 78.3997 45.2676C77.8411 44.6973 77.5618 43.9395 77.5618 42.9941V42.8184C77.5618 42.1855 77.6829 41.6211 77.9251 41.125C78.1712 40.625 78.5149 40.2363 78.9563 39.959C79.3977 39.6816 79.8899 39.543 80.4329 39.543C81.2962 39.543 81.9622 39.8184 82.4309 40.3691C82.9036 40.9199 83.1399 41.6992 83.1399 42.707V43.2812H78.9973C79.0403 43.8047 79.2141 44.2188 79.5188 44.5234C79.8274 44.8281 80.2141 44.9805 80.679 44.9805C81.3313 44.9805 81.8626 44.7168 82.2727 44.1895L83.0403 44.9219C82.7864 45.3008 82.4466 45.5957 82.0208 45.8066C81.5989 46.0137 81.1243 46.1172 80.597 46.1172ZM80.427 40.6855C80.0364 40.6855 79.72 40.8223 79.4778 41.0957C79.2395 41.3691 79.0872 41.75 79.0208 42.2383H81.7337V42.1328C81.7024 41.6562 81.5755 41.2969 81.3528 41.0547C81.1302 40.8086 80.8216 40.6855 80.427 40.6855ZM89.8604 46H88.4366V43.4395H85.9698V46H84.5459V39.6602H85.9698V42.3027H88.4366V39.6602H89.8604V46ZM94.4129 46.1172C93.5105 46.1172 92.7781 45.834 92.2156 45.2676C91.657 44.6973 91.3777 43.9395 91.3777 42.9941V42.8184C91.3777 42.1855 91.4988 41.6211 91.741 41.125C91.9871 40.625 92.3309 40.2363 92.7723 39.959C93.2137 39.6816 93.7059 39.543 94.2488 39.543C95.1121 39.543 95.7781 39.8184 96.2469 40.3691C96.7195 40.9199 96.9559 41.6992 96.9559 42.707V43.2812H92.8133C92.8563 43.8047 93.0301 44.2188 93.3348 44.5234C93.6434 44.8281 94.0301 44.9805 94.4949 44.9805C95.1473 44.9805 95.6785 44.7168 96.0887 44.1895L96.8563 44.9219C96.6023 45.3008 96.2625 45.5957 95.8367 45.8066C95.4148 46.0137 94.9402 46.1172 94.4129 46.1172ZM94.243 40.6855C93.8523 40.6855 93.5359 40.8223 93.2938 41.0957C93.0555 41.3691 92.9031 41.75 92.8367 42.2383H95.5496V42.1328C95.5184 41.6562 95.3914 41.2969 95.1688 41.0547C94.9461 40.8086 94.6375 40.6855 94.243 40.6855ZM103.858 42.8945C103.858 43.875 103.635 44.6582 103.19 45.2441C102.745 45.8262 102.147 46.1172 101.397 46.1172C100.702 46.1172 100.145 45.8887 99.7271 45.4316V48.4375H98.3033V39.6602H99.6158L99.6744 40.3047C100.092 39.7969 100.661 39.543 101.379 39.543C102.153 39.543 102.758 39.832 103.196 40.4102C103.637 40.9844 103.858 41.7832 103.858 42.8066V42.8945ZM102.44 42.7715C102.44 42.1387 102.313 41.6367 102.059 41.2656C101.809 40.8945 101.45 40.709 100.981 40.709C100.399 40.709 99.981 40.9492 99.7271 41.4297V44.2422C99.9849 44.7344 100.407 44.9805 100.993 44.9805C101.446 44.9805 101.799 44.7988 102.053 44.4355C102.311 44.0684 102.44 43.5137 102.44 42.7715ZM106.84 41.6758H108.235C108.754 41.6758 109.207 41.7656 109.594 41.9453C109.981 42.125 110.274 42.377 110.473 42.7012C110.676 43.0254 110.778 43.4023 110.778 43.832C110.778 44.4844 110.547 45.0078 110.086 45.4023C109.625 45.7969 109.012 45.9961 108.246 46H105.416V39.6602H106.84V41.6758ZM113.256 46H111.832V39.6602H113.256V46ZM106.84 42.8184V44.8633H108.229C108.576 44.8633 108.85 44.7773 109.049 44.6055C109.252 44.4297 109.354 44.1816 109.354 43.8613C109.354 43.541 109.254 43.2891 109.055 43.1055C108.86 42.918 108.594 42.8223 108.258 42.8184H106.84Z" fill="white"/>
<g clip-path="url(#clip0)">
<path d="M6.97852 38.3239H22.728M34.6655 37.2093H39.0124M32.3248 21.7831H39.0124M32.3248 21.7831C32.3248 21.3422 32.194 20.9112 31.9491 20.5446C31.7041 20.178 31.356 19.8923 30.9486 19.7236C30.5413 19.5549 30.0931 19.5107 29.6607 19.5967C29.2282 19.6828 28.831 19.8951 28.5193 20.2068C28.2075 20.5186 27.9952 20.9158 27.9092 21.3482C27.8231 21.7807 27.8673 22.2289 28.036 22.6362C28.2047 23.0435 28.4905 23.3917 28.8571 23.6367C29.2237 23.8816 29.6547 24.0123 30.0956 24.0123C30.6868 24.0123 31.2538 23.7775 31.6718 23.3594C32.0899 22.9414 32.3248 22.3744 32.3248 21.7831ZM14.1566 23.6222H22.9955L28.7692 27.6683H39.0124M14.1566 23.6222C14.1449 24.2057 13.9049 24.7613 13.4881 25.1698C13.0713 25.5783 12.511 25.807 11.9274 25.8069C11.4865 25.8069 11.0555 25.6761 10.6889 25.4312C10.3223 25.1862 10.0366 24.8381 9.86786 24.4307C9.69913 24.0234 9.65498 23.5752 9.741 23.1428C9.82702 22.7103 10.0393 22.3131 10.3511 22.0014C10.6629 21.6896 11.0601 21.4773 11.4925 21.3913C11.9249 21.3052 12.3731 21.3494 12.7805 21.5181C13.1878 21.6868 13.536 21.9726 13.7809 22.3392C14.0259 22.7058 14.1566 23.1368 14.1566 23.5777V23.6222ZM14.1566 33.8655H26.2056L28.7692 31.2908H39.0124M14.1566 33.8655C14.1566 33.4246 14.0259 32.9936 13.7809 32.627C13.536 32.2604 13.1878 31.9747 12.7805 31.806C12.3731 31.6373 11.9249 31.5931 11.4925 31.6791C11.0601 31.7651 10.6629 31.9774 10.3511 32.2892C10.0393 32.601 9.82702 32.9982 9.741 33.4306C9.65498 33.863 9.69913 34.3113 9.86786 34.7186C10.0366 35.1259 10.3223 35.4741 10.6889 35.719C11.0555 35.964 11.4865 36.0947 11.9274 36.0947C12.5186 36.0947 13.0856 35.8599 13.5037 35.4418C13.9217 35.0237 14.1566 34.4567 14.1566 33.8655ZM6.97852 28.716H16.854M6.97852 19.1638H20.521M27.1864 38.3239C27.1864 37.8831 27.0557 37.4521 26.8107 37.0855C26.5658 36.7189 26.2176 36.4331 25.8103 36.2644C25.4029 36.0957 24.9547 36.0515 24.5223 36.1376C24.0899 36.2236 23.6927 36.4359 23.3809 36.7477C23.0691 37.0594 22.8568 37.4566 22.7708 37.8891C22.6848 38.3215 22.7289 38.7697 22.8977 39.177C23.0664 39.5844 23.3521 39.9325 23.7187 40.1775C24.0853 40.4224 24.5163 40.5532 24.9572 40.5532C25.5407 40.5415 26.0963 40.3015 26.5047 39.8847C26.9132 39.4679 27.1419 38.9075 27.1418 38.3239H27.1864ZM34.6209 37.2093C34.6209 36.7684 34.4901 36.3374 34.2452 35.9708C34.0002 35.6043 33.6521 35.3185 33.2447 35.1498C32.8374 34.9811 32.3892 34.9369 31.9567 35.023C31.5243 35.109 31.1271 35.3213 30.8154 35.633C30.5036 35.9448 30.2913 36.342 30.2053 36.7744C30.1192 37.2069 30.1634 37.6551 30.3321 38.0624C30.5008 38.4698 30.7866 38.8179 31.1532 39.0629C31.5198 39.3078 31.9508 39.4386 32.3916 39.4386C32.9829 39.4386 33.5499 39.2037 33.9679 38.7856C34.386 38.3676 34.6209 37.8006 34.6209 37.2093ZM21.2567 28.716C21.2567 28.2751 21.1259 27.8441 20.881 27.4775C20.636 27.1109 20.2879 26.8252 19.8805 26.6565C19.4732 26.4878 19.025 26.4436 18.5926 26.5296C18.1601 26.6156 17.7629 26.8279 17.4512 27.1397C17.1394 27.4515 16.9271 27.8487 16.8411 28.2811C16.7551 28.7135 16.7992 29.1618 16.9679 29.5691C17.1367 29.9764 17.4224 30.3246 17.789 30.5695C18.1556 30.8145 18.5866 30.9452 19.0275 30.9452C19.611 30.9453 20.1714 30.7166 20.5882 30.3081C21.005 29.8997 21.245 29.3441 21.2567 28.7606V28.716ZM24.9349 19.1638C24.9349 18.7229 24.8042 18.2919 24.5592 17.9253C24.3143 17.5587 23.9661 17.273 23.5588 17.1043C23.1514 16.9355 22.7032 16.8914 22.2708 16.9774C21.8384 17.0634 21.4411 17.2757 21.1294 17.5875C20.8176 17.8993 20.6053 18.2965 20.5193 18.7289C20.4333 19.1613 20.4774 19.6095 20.6461 20.0169C20.8149 20.4242 21.1006 20.7724 21.4672 21.0173C21.8338 21.2623 22.2648 21.393 22.7057 21.393C23.2893 21.3931 23.8496 21.1644 24.2664 20.7559C24.6832 20.3475 24.9232 19.7918 24.9349 19.2084V19.1638Z" stroke="white" stroke-width="1.5" stroke-linejoin="bevel"/>
<path d="M26.4328 50.7792C38.4598 48.8787 46.6689 37.5881 44.7683 25.5611C42.8677 13.5342 31.5772 5.3251 19.5502 7.22568C7.52323 9.12627 -0.685835 20.4168 1.21475 32.4438C3.11533 44.4707 14.4059 52.6798 26.4328 50.7792Z" stroke="white" stroke-width="1.7" stroke-linejoin="bevel"/>
</g>
<defs>
<clipPath id="clip0">
<rect width="46" height="46" fill="white" transform="translate(0 6)"/>
</clipPath>
</defs>
</svg>
