<svg width="29" height="28" viewBox="0 0 29 28" fill="none" xmlns="http://www.w3.org/2000/svg">
<path fill-rule="evenodd" clip-rule="evenodd" d="M10.7421 17.2591C13.4466 19.9635 15.9585 21.4709 17.8276 22.3086C19.4599 23.0402 21.3861 22.4661 22.8877 20.9646L23.2307 20.6204L19.1052 17.9953C18.3212 19.1387 16.8383 19.8095 15.3577 19.1853C14.2365 18.7116 12.7524 17.9019 11.4258 16.5754C10.0993 15.2488 9.29072 13.7647 8.81703 12.6435C8.19167 11.1629 8.86137 9.68002 10.0059 8.89599L7.38079 4.77045L7.03661 5.11347C5.53504 6.61504 4.96218 8.5413 5.69254 10.1735C6.53025 12.0426 8.03766 14.5546 10.7421 17.2591ZM16.8744 24.4379C14.7568 23.4894 12.0069 21.8233 9.09238 18.9088C6.1779 15.9955 4.51182 13.2444 3.56211 11.1268C2.30788 8.32662 3.4536 5.39815 5.38686 3.46372L5.72988 3.11954C5.97693 2.87233 6.27635 2.68377 6.60603 2.56779C6.93572 2.45181 7.28724 2.41136 7.63465 2.44944C7.98207 2.48752 8.31649 2.60315 8.61322 2.78779C8.90995 2.97243 9.16142 3.22137 9.34906 3.51622L12.6509 8.70814C12.7383 8.84586 12.7959 9.00039 12.82 9.16176C12.844 9.32312 12.8339 9.48773 12.7904 9.64495C12.7468 9.80217 12.6708 9.94852 12.5672 10.0745C12.4636 10.2006 12.3347 10.3034 12.1889 10.3766L11.4503 10.7464C10.9463 10.9984 10.8436 11.4429 10.9661 11.7358C11.3617 12.6727 12.0232 13.8721 13.0756 14.9256C14.1291 15.978 15.3285 16.6395 16.2654 17.035C16.5582 17.1587 17.0028 17.0549 17.2548 16.5509L17.6246 15.8123C17.6976 15.6664 17.8004 15.5374 17.9264 15.4337C18.0524 15.3299 18.1987 15.2538 18.356 15.2101C18.5132 15.1665 18.6778 15.1563 18.8392 15.1802C19.0007 15.2042 19.1552 15.2617 19.293 15.3491L24.485 18.6521C24.7798 18.8398 25.0288 19.0912 25.2134 19.388C25.398 19.6847 25.5137 20.0191 25.5517 20.3665C25.5898 20.7139 25.5494 21.0655 25.4334 21.3952C25.3174 21.7248 25.1289 22.0243 24.8816 22.2713L24.5375 22.6143C22.6042 24.5487 19.6757 25.6933 16.8744 24.4379Z" fill="white"/>
</svg>
