<?xml version="1.0" standalone="no"?>
<!DOCTYPE svg PUBLIC "-//W3C//DTD SVG 20010904//EN"
 "http://www.w3.org/TR/2001/REC-SVG-20010904/DTD/svg10.dtd">
<svg version="1.0" xmlns="http://www.w3.org/2000/svg"
 width="700.000000pt" height="700.000000pt" viewBox="0 0 700.000000 700.000000"
 preserveAspectRatio="xMidYMid meet">
<metadata>
Created by potrace 1.14, written by Peter Selinger 2001-2017
</metadata>
<g transform="translate(0.000000,700.000000) scale(0.100000,-0.100000)"
fill="#000000" stroke="none">
<path d="M3458 6566 c-1 -2 -68 -6 -148 -10 -80 -3 -156 -8 -169 -11 -13 -2
-49 -7 -80 -11 -31 -3 -101 -15 -156 -26 -55 -10 -113 -22 -129 -24 -66 -12
-305 -87 -414 -130 -265 -105 -467 -217 -707 -393 -89 -65 -109 -82 -210 -171
-356 -316 -655 -757 -824 -1219 -43 -118 -56 -159 -98 -326 -28 -111 -28 -112
-38 -175 -4 -25 -9 -53 -11 -64 -2 -10 -6 -39 -9 -65 -2 -25 -7 -64 -10 -86
-19 -135 -19 -522 -1 -632 3 -15 7 -50 11 -78 3 -27 7 -61 10 -75 3 -13 7 -42
10 -65 11 -71 73 -319 106 -416 280 -842 906 -1512 1733 -1854 155 -64 445
-149 581 -171 22 -3 42 -7 45 -9 3 -2 37 -6 75 -10 39 -4 72 -9 75 -10 3 -2
46 -7 95 -11 166 -14 527 -8 624 11 13 2 47 7 75 10 28 3 62 7 76 10 14 3 36
7 50 10 106 21 148 30 240 55 212 58 324 101 569 222 606 299 1108 825 1395
1464 108 238 203 567 231 799 4 28 8 57 10 65 10 38 19 201 19 360 0 209 -10
336 -40 510 -21 124 -21 125 -53 250 -42 161 -84 287 -141 425 -22 51 -133
276 -162 325 -459 795 -1243 1337 -2148 1483 -144 24 -174 27 -320 33 -74 3
-140 7 -147 9 -6 2 -13 2 -15 1z m267 -241 c39 -3 81 -8 95 -10 99 -14 179
-28 205 -35 17 -5 46 -12 65 -15 52 -9 243 -63 295 -85 11 -4 54 -20 95 -35
116 -43 344 -157 460 -230 90 -57 271 -186 306 -219 7 -6 42 -38 80 -71 146
-129 259 -252 375 -410 49 -66 94 -125 99 -132 6 -7 10 -15 10 -17 0 -3 20
-38 45 -77 41 -63 175 -319 175 -333 0 -4 9 -25 19 -49 99 -217 186 -587 206
-867 6 -79 6 -349 1 -405 -10 -107 -19 -182 -22 -200 -2 -11 -6 -37 -9 -57 -3
-20 -10 -59 -16 -85 -6 -26 -13 -61 -16 -76 -2 -16 -18 -75 -34 -130 -16 -56
-31 -109 -33 -117 -8 -27 -35 -99 -73 -193 -189 -469 -539 -912 -958 -1214
-150 -108 -354 -224 -515 -292 -41 -18 -84 -36 -95 -42 -106 -50 -475 -144
-660 -168 -238 -31 -584 -29 -759 5 -11 2 -38 6 -61 9 -22 4 -90 17 -152 31
-877 194 -1623 815 -1968 1638 -45 107 -129 358 -138 412 -3 16 -12 58 -20 94
-9 36 -18 81 -21 100 -3 19 -7 44 -10 55 -2 11 -7 49 -11 85 -3 36 -9 79 -12
95 -10 63 -9 385 3 505 18 183 22 213 50 339 255 1144 1172 2003 2324 2177 25
3 54 8 65 10 11 2 65 7 120 10 55 4 101 8 103 9 6 5 320 -3 387 -10z"/>
<path d="M3333 5220 c-120 -27 -252 -148 -278 -252 -4 -14 -14 -28 -23 -30
-10 -2 -392 -3 -849 -3 l-833 1 -1 -30 c0 -17 -1 -61 -2 -99 -2 -61 0 -67 18
-68 11 0 392 -1 847 -1 l828 -1 35 -73 c92 -190 317 -272 509 -185 175 79 264
263 222 460 -21 98 -132 223 -233 262 -61 23 -180 33 -240 19z m165 -205 c80
-34 122 -100 118 -187 -5 -106 -82 -182 -186 -182 -89 -1 -152 39 -185 116
-32 78 -8 171 59 224 57 46 127 56 194 29z"/>
<path d="M4324 4874 c-123 -25 -222 -101 -277 -213 -30 -62 -32 -73 -32 -171
1 -95 3 -111 30 -165 55 -115 164 -197 290 -220 172 -31 360 70 426 230 l23
55 398 0 398 0 0 100 0 100 -398 0 -398 0 -27 63 c-32 71 -55 101 -120 150
-90 69 -202 94 -313 71z m151 -204 c37 -14 82 -55 102 -93 35 -69 15 -176 -44
-227 -45 -40 -77 -52 -134 -52 -107 0 -190 84 -191 191 -1 139 137 232 267
181z"/>
<path d="M1930 4642 c-46 -8 -124 -43 -164 -75 -60 -46 -83 -75 -119 -147 -30
-60 -32 -72 -32 -165 0 -91 3 -106 31 -165 40 -84 106 -150 191 -192 62 -30
76 -33 163 -33 86 0 101 3 163 32 85 40 156 111 194 192 l28 61 523 0 523 0
369 -259 c203 -143 380 -263 392 -267 13 -5 330 -8 706 -9 l682 0 0 97 0 98
-27 1 c-16 0 -314 0 -663 1 l-635 1 -360 254 c-198 139 -371 259 -385 265 -18
9 -176 13 -555 14 -291 1 -539 3 -550 3 -15 1 -25 12 -34 39 -34 99 -129 194
-234 234 -50 19 -155 29 -207 20z m164 -218 c36 -18 95 -92 97 -123 5 -70 2
-90 -17 -132 -54 -116 -212 -146 -304 -56 -60 58 -78 143 -46 217 44 105 161
146 270 94z"/>
<path d="M2860 3961 c-113 -22 -226 -114 -278 -224 l-30 -63 -600 0 -601 1 -3
-65 c-2 -36 -1 -81 2 -100 l5 -35 603 0 c331 0 602 -3 602 -8 0 -27 58 -124
101 -168 190 -193 516 -136 633 111 28 59 31 74 31 165 0 91 -3 106 -31 165
-79 166 -256 256 -434 221z m153 -206 c19 -8 48 -28 65 -44 28 -29 60 -101 56
-128 -1 -7 -2 -26 -3 -41 -3 -71 -106 -162 -183 -162 -157 0 -252 161 -174
294 48 82 152 118 239 81z"/>
<path d="M4217 3329 c-46 -12 -70 -32 -218 -182 l-151 -152 -734 -1 c-461 0
-734 3 -734 9 0 6 -12 35 -27 66 -73 150 -248 241 -409 214 -134 -23 -239
-102 -298 -223 -28 -60 -31 -73 -31 -165 0 -93 2 -105 33 -167 73 -150 209
-230 377 -223 152 6 295 111 345 255 l12 35 747 -1 c630 0 752 2 786 14 29 11
84 59 196 171 l156 156 654 0 654 0 3 100 3 100 -671 0 c-369 0 -681 -3 -693
-6z m-2108 -272 c68 -45 103 -146 78 -222 -26 -76 -107 -135 -184 -135 -46 0
-117 31 -144 62 -50 57 -64 142 -36 210 45 108 188 150 286 85z"/>
<path d="M4613 2834 c-305 -81 -403 -445 -180 -664 127 -124 334 -143 484 -45
63 42 119 107 146 172 12 26 24 50 28 53 4 3 116 5 248 4 l241 0 0 98 0 98
-37 1 c-21 0 -132 1 -246 1 l-208 0 -24 55 c-33 74 -59 108 -116 153 -93 73
-229 103 -336 74z m181 -209 c78 -37 122 -141 97 -226 -36 -121 -188 -177
-294 -108 -46 30 -87 107 -87 163 1 81 60 162 137 186 39 13 102 6 147 -15z"/>
<path d="M3620 2685 c-112 -32 -197 -103 -253 -214 l-33 -66 -991 1 -991 0 -4
-41 c-2 -22 -1 -67 2 -100 l5 -60 993 0 994 0 13 -39 c33 -94 127 -187 232
-229 59 -24 171 -29 230 -11 156 47 256 161 288 326 22 117 -6 218 -86 311
-95 111 -258 161 -399 122z m191 -208 c24 -13 57 -42 73 -64 69 -99 8 -259
-112 -293 -46 -12 -58 -12 -105 1 -78 21 -140 104 -139 185 3 147 154 239 283
171z"/>
</g>
</svg>
